Patient4_TMGait_0pt5_01_right_21_GRF.mot
version=1
nRows=64
nColumns=19
inDegrees=no
endheader
time	F1x	F1y	F1z	M1x	M1y	M1z	F2x	F2y	F2z	M2x	M2y	M2z	EC1x	EC1y	EC1z	EC2x	EC2y	EC2z
27.47	4.1521	708.4684	41.8236	-258.4518	-35.9134	639.4614	-4.0896	-1.0033	-4.0252	0.55816	6.3079	-0.66985	-0.0592	0.0182	-0.0073	-0.0462	0.0165	0.9585
27.4829	5.9614	717.3277	42.7117	-262.0741	-35.3241	645.2741	-2.7574	0.029656	-2.7038	0.62929	4.2729	0.34912	-0.0592	0.0182	-0.0073	-0.0462	0.0165	0.9585
27.4959	8	728.0099	43.6241	-266.454	-34.6909	652.0909	-1.6416	0.91837	-1.5963	0.70223	2.5535	1.21	-0.0592	0.0182	-0.0073	-0.0462	0.0165	0.9585
27.5088	10.2156	739.7814	44.5898	-271.3015	-34.0875	659.3264	-0.80264	1.6172	-0.75919	0.77391	1.2474	1.8698	-0.0592	0.0182	-0.0073	-0.0462	0.0165	0.9585
27.5217	12.5821	751.7257	45.6233	-276.2575	-33.5376	666.2595	-0.23218	2.1353	-0.19351	0.84332	0.35663	2.3427	-0.0592	0.0182	-0.0073	-0.0462	0.0165	0.9585
27.5346	15.0873	762.9161	46.7403	-280.9582	-33.0459	672.1676	0.11237	2.4953	0.14674	0.90685	-0.18361	2.6491	-0.0592	0.0182	-0.0073	-0.0462	0.0165	0.9585
27.5476	17.7216	772.5825	47.9122	-285.099	-32.5783	676.4698	0.27842	2.7124	0.30866	0.95626	-0.44803	2.8101	-0.0592	0.0182	-0.0073	-0.0462	0.0165	0.9585
27.5605	20.4553	780.1884	49.0971	-288.4651	-32.0993	678.7906	0.31432	2.7775	0.34599	0.97417	-0.51853	2.826	-0.0592	0.0182	-0.0073	-0.0462	0.0165	0.9585
27.5734	23.2631	785.4622	50.2324	-290.9413	-31.5588	678.9719	0.25926	2.6529	0.30307	0.93361	-0.46502	2.657	-0.0592	0.0182	-0.0073	-0.0462	0.0165	0.9585
27.5864	26.1213	788.377	51.2545	-292.5031	-30.91	677.0609	0.14947	2.2726	0.21648	0.79866	-0.34521	2.2293	-0.0592	0.0182	-0.0073	-0.0462	0.0165	0.9585
27.5993	29.03	789.1024	52.1004	-293.1994	-30.1063	673.2626	0.022876	1.5519	0.11609	0.52922	-0.20599	1.4503	-0.0592	0.0182	-0.0073	-0.0462	0.0165	0.9585
27.6122	31.9919	787.9146	52.7256	-293.1201	-29.1132	667.8712	-0.084416	0.39408	0.02299	0.083304	-0.086719	0.21876	-0.0592	0.0182	-0.0073	-0.0462	0.0165	0.9585
27.6251	34.9984	785.118	53.1225	-292.366	-27.9337	661.2112	-0.12878	-1.2726	-0.041239	-0.57024	-0.025033	-1.5364	-0.0592	0.0182	-0.0073	-0.0462	0.0165	0.9585
27.6381	37.9996	780.9961	53.3215	-291.0263	-26.6189	653.6062	-0.058529	-3.4513	-0.065001	-1.4346	-0.046329	-3.8167	-0.0592	0.0182	-0.0073	-0.0462	0.0165	0.9585
27.651	40.9127	775.7786	53.3968	-289.1678	-25.2697	645.3327	0.18593	-6.0181	-0.031587	-2.4595	-0.18361	-6.495	-0.0592	0.0182	-0.0073	-0.0462	0.0165	0.9585
27.6639	43.6365	769.6433	53.4249	-286.8393	-23.9937	636.6176	0.66687	-8.6478	0.069505	-3.513	-0.47044	-9.235	-0.0592	0.0182	-0.0073	-0.0462	0.0165	0.9585
27.6769	46.0707	762.7372	53.4922	-284.0854	-22.9038	627.6502	1.4414	-10.7205	0.25283	-4.3425	-0.94573	-11.3881	-0.0592	0.0182	-0.0073	-0.0462	0.0165	0.9585
27.6898	48.1517	755.2078	53.6553	-280.9605	-22.074	618.5942	2.5418	-11.2214	0.52748	-4.538	-1.6328	-11.8739	-0.0592	0.0182	-0.0073	-0.0462	0.0165	0.9585
27.7027	49.8426	747.1727	53.9503	-277.5165	-21.551	609.5698	3.9539	-8.6735	0.90011	-3.5062	-2.531	-9.1341	-0.0592	0.0182	-0.0073	-0.0462	0.0165	0.9585
27.7156	51.1605	738.6435	54.3582	-273.7759	-21.318	600.5885	5.5711	-1.1286	1.3565	-0.46733	-3.5748	-1.1195	-0.0592	0.0182	-0.0073	-0.0462	0.0165	0.9585
27.7286	52.1309	729.4347	54.7961	-269.6991	-21.2976	591.4872	7.1459	13.7346	1.8531	5.5057	-4.6035	14.616	-0.0592	0.0182	-0.0073	-0.0462	0.0165	0.9585
27.7415	52.779	719.0617	55.0988	-265.1441	-21.3458	581.8448	8.2292	38.3169	2.2939	15.3683	-5.3192	40.6025	-0.0592	0.0182	-0.0073	-0.0462	0.0165	0.9585
27.7544	53.1059	706.6654	55.0524	-259.8349	-21.2876	570.9299	8.1138	74.5329	2.5221	29.8772	-5.2606	78.873	-0.0592	0.0182	-0.0073	-0.0462	0.0165	0.9585
27.7674	53.0807	691.0297	54.4101	-253.3678	-20.9314	557.7172	5.8669	122.9574	2.3108	49.2511	-3.8156	130.0498	-0.0592	0.0182	-0.0073	-0.0462	0.0165	0.9585
27.7803	52.6475	670.7236	52.9406	-245.2615	-20.1075	540.9967	0.59051	181.7206	1.4718	72.7295	-0.44306	192.1627	-0.0592	0.0182	-0.0073	-0.0462	0.0165	0.9585
27.7932	51.7475	644.3917	50.4713	-235.0602	-18.694	519.6043	-7.6502	245.7486	-0.24232	98.2624	5.0474	259.82	-0.0592	0.0182	-0.0073	-0.0462	0.0165	0.9585
27.8061	50.3144	611.0867	46.9525	-222.454	-16.6708	492.6911	-17.2881	307.7755	-3.2635	122.9208	12.4255	325.2121	-0.0592	0.0182	-0.0073	-0.0462	0.0165	0.9585
27.8191	48.2768	570.518	42.5285	-207.3569	-14.1755	459.9501	-26.5485	361.9797	-7.5677	144.3705	20.8887	381.9964	-0.0592	0.0182	-0.0073	-0.0462	0.0165	0.9585
27.832	45.5472	523.0833	37.5562	-189.9044	-11.5117	421.6708	-34.1777	406.3703	-12.6038	161.8205	29.3426	427.9236	-0.0592	0.0182	-0.0073	-0.0462	0.0165	0.9585
27.8449	42.0472	469.7607	32.4642	-170.4221	-9.0297	378.6575	-39.5927	442.0309	-17.7668	175.7188	36.9064	464.1186	-0.0592	0.0182	-0.0073	-0.0462	0.0165	0.9585
27.8579	37.7291	412.0729	27.5501	-149.4279	-6.9637	332.161	-42.796	471.8029	-22.4977	187.213	43.0084	493.6233	-0.0592	0.0182	-0.0073	-0.0462	0.0165	0.9585
27.8708	32.5532	352.0105	22.9658	-127.6113	-5.4388	283.8197	-44.1687	499.0174	-26.5404	197.6306	47.553	520.0201	-0.0592	0.0182	-0.0073	-0.0462	0.0165	0.9585
27.8837	26.5621	291.8701	18.7453	-105.7818	-4.4658	235.4862	-44.3158	526.6418	-29.9514	208.1202	50.8663	546.518	-0.0592	0.0182	-0.0073	-0.0462	0.0165	0.9585
27.8966	19.9099	234.0579	14.941	-84.793	-4.0353	189.0892	-43.9046	556.6924	-33.1175	219.4321	53.6289	575.3343	-0.0592	0.0182	-0.0073	-0.0462	0.0165	0.9585
27.9096	12.9464	180.8612	11.6052	-65.467	-4.067	146.4353	-43.5245	589.9382	-36.5096	231.8167	56.5659	607.3895	-0.0592	0.0182	-0.0073	-0.0462	0.0165	0.9585
27.9225	6.2049	134.1358	8.8102	-48.4789	-4.4256	108.9756	-43.5518	625.8242	-40.4865	245.023	60.1999	642.1718	-0.0592	0.0182	-0.0073	-0.0462	0.0165	0.9585
27.9354	0.3051	94.987	6.5577	-34.2409	-4.885	77.5525	-44.2264	662.8052	-45.1528	258.4351	64.7301	678.1275	-0.0592	0.0182	-0.0073	-0.0462	0.0165	0.9585
27.9484	-4.2485	63.6483	4.814	-22.8506	-5.2338	52.3351	-45.531	698.8307	-50.2962	271.2816	69.9409	713.1372	-0.0592	0.0182	-0.0073	-0.0462	0.0165	0.9585
27.9613	-7.1548	39.6432	3.4627	-14.1425	-5.2713	32.953	-47.2631	731.8721	-55.4654	282.8289	75.3068	745.0977	-0.0592	0.0182	-0.0073	-0.0462	0.0165	0.9585
27.9742	-8.3582	22.0792	2.4051	-7.7905	-4.9082	18.7037	-49.0855	760.0782	-60.1536	292.4319	80.1961	772.0748	-0.0592	0.0182	-0.0073	-0.0462	0.0165	0.9585
27.9871	-8.0585	9.9033	1.5522	-3.4087	-4.1531	8.7608	-50.6735	781.8945	-63.9911	299.561	84.1151	792.4581	-0.0592	0.0182	-0.0073	-0.0462	0.0165	0.9585
28.0001	-6.7406	2.0789	0.88089	-0.61434	-3.1684	2.3015	-51.7544	796.229	-66.766	303.8614	86.7536	805.1038	-0.0592	0.0182	-0.0073	-0.0462	0.0165	0.9585
28.013	-5.0427	-2.3374	0.38875	0.94358	-2.1808	-1.4023	-52.132	802.7285	-68.3902	305.2531	87.9661	809.6171	-0.0592	0.0182	-0.0073	-0.0462	0.0165	0.9585
28.0259	-3.3761	-4.3157	0.07894	1.6192	-1.3469	-3.1169	-51.7082	801.9445	-68.8647	303.9978	87.7336	806.5304	-0.0592	0.0182	-0.0073	-0.0462	0.0165	0.9585
28.0389	-1.9678	-4.7131	-0.093039	1.7248	-0.71466	-3.5238	-50.4606	795.2933	-68.2681	300.6794	86.1437	797.2459	-0.0592	0.0182	-0.0073	-0.0462	0.0165	0.9585
28.0518	-0.89958	-4.2127	-0.15575	1.5095	-0.2936	-3.1861	-48.4471	784.7971	-66.7441	296.0999	83.3787	783.7636	-0.0592	0.0182	-0.0073	-0.0462	0.0165	0.9585
28.0647	-0.16888	-3.3072	-0.15613	1.1511	-0.040013	-2.5076	-45.7625	772.6758	-64.489	291.1211	79.6868	768.2669	-0.0592	0.0182	-0.0073	-0.0462	0.0165	0.9585
28.0776	0.27444	-2.3053	-0.11928	0.76392	0.086685	-1.73	-42.542	760.9808	-61.723	286.5229	75.3463	752.7834	-0.0592	0.0182	-0.0073	-0.0462	0.0165	0.9585
28.0906	0.5067	-1.3925	-0.070908	0.41548	0.13492	-1.0157	-38.9242	751.2899	-58.6819	282.8906	70.6458	738.8667	-0.0592	0.0182	-0.0073	-0.0462	0.0165	0.9585
28.1035	0.58284	-0.64543	-0.023674	0.13431	0.13292	-0.42872	-35.0319	744.576	-55.5937	280.5684	65.8542	727.4776	-0.0592	0.0182	-0.0073	-0.0462	0.0165	0.9585
28.1164	0.57177	-0.088019	0.014471	-0.072437	0.10982	0.000452	-30.9491	741.1954	-52.6764	279.6561	61.211	718.9715	-0.0592	0.0182	-0.0073	-0.0462	0.0165	0.9585
28.1294	0.51515	0.30293	0.043175	-0.21281	0.080637	0.3035	-26.6997	740.9644	-50.103	280.048	56.8875	713.1604	-0.0592	0.0182	-0.0073	-0.0462	0.0165	0.9585
28.1423	0.44693	0.55421	0.05901	-0.29778	0.056978	0.50171	-22.2733	743.3161	-47.987	281.499	52.9794	709.4872	-0.0592	0.0182	-0.0073	-0.0462	0.0165	0.9585
28.1552	0.37636	0.70517	0.064025	-0.34252	0.035133	0.63992	-17.626	747.4981	-46.3481	283.7061	49.4762	707.2169	-0.0592	0.0182	-0.0073	-0.0462	0.0165	0.9585
28.1681	0.30525	0.77795	0.056013	-0.35715	0.017464	0.73043	-12.715	752.769	-45.1503	286.3767	46.3142	705.645	-0.0592	0.0182	-0.0073	-0.0462	0.0165	0.9585
28.1811	0.22977	0.77949	0.043158	-0.34429	-0.005363	0.7626	-7.5369	758.4918	-44.297	289.2599	43.3893	704.1993	-0.0592	0.0182	-0.0073	-0.0462	0.0165	0.9585
28.194	0.13107	0.70283	0.02973	-0.30124	-0.04009	0.723	-2.1568	764.1354	-43.7053	292.1407	40.639	702.454	-0.0592	0.0182	-0.0073	-0.0462	0.0165	0.9585
28.2069	0.023702	0.51005	0.02737	-0.21473	-0.091931	0.55959	3.3004	769.2627	-43.2966	294.8321	38.0259	700.1176	-0.0592	0.0182	-0.0073	-0.0462	0.0165	0.9585
28.2199	-0.095274	0.16069	0.028018	-0.06869	-0.14967	0.22895	8.6602	773.4977	-43.0357	297.1636	35.5732	696.9955	-0.0592	0.0182	-0.0073	-0.0462	0.0165	0.9585
28.2328	-0.20627	-0.40582	0.035255	0.16051	-0.20744	-0.34183	13.7085	776.52	-42.8842	298.9826	33.319	692.9748	-0.0592	0.0182	-0.0073	-0.0462	0.0165	0.9585
28.2457	-0.29042	-1.2428	0.037627	0.4916	-0.24485	-1.2077	18.2157	778.0847	-42.8109	300.1623	31.3206	688.0306	-0.0592	0.0182	-0.0073	-0.0462	0.0165	0.9585
28.2586	-0.30337	-2.3806	0.039225	0.93297	-0.24804	-2.3997	21.9656	777.9922	-42.7751	300.5958	29.6203	682.1622	-0.0592	0.0182	-0.0073	-0.0462	0.0165	0.9585
28.2716	-0.18887	-3.7733	0.026807	1.4662	-0.18034	-3.8735	24.7986	776.116	-42.769	300.2091	28.2657	675.3955	-0.0592	0.0182	-0.0073	-0.0462	0.0165	0.9585
28.2845	0.1318	-5.2775	-0.0058468	2.0361	-0.0038283	-5.4736	26.6411	772.4945	-42.7863	298.998	27.2743	667.8601	-0.0592	0.0182	-0.0073	-0.0462	0.0165	0.9585
